<?xml version="1.0" encoding="UTF-8" standalone="no"?>
<!-- Created with Inkscape (http://www.inkscape.org/) -->

<svg
   width="152.48158mm"
   height="21.457521mm"
   viewBox="0 0 152.48158 21.457521"
   version="1.1"
   id="svg1"
   xml:space="preserve"
   xmlns:inkscape="http://www.inkscape.org/namespaces/inkscape"
   xmlns:sodipodi="http://sodipodi.sourceforge.net/DTD/sodipodi-0.dtd"
   xmlns="http://www.w3.org/2000/svg"
   xmlns:svg="http://www.w3.org/2000/svg"><sodipodi:namedview
     id="namedview1"
     pagecolor="#505050"
     bordercolor="#ffffff"
     borderopacity="1"
     inkscape:showpageshadow="0"
     inkscape:pageopacity="0"
     inkscape:pagecheckerboard="1"
     inkscape:deskcolor="#505050"
     inkscape:document-units="mm"
     inkscape:lockguides="true" /><defs
     id="defs1"><inkscape:path-effect
       effect="fillet_chamfer"
       id="path-effect393"
       is_visible="true"
       lpeversion="1"
       nodesatellites_param="F,0,0,1,0,1.7579108,0,1 @ F,0,0,1,0,1.4827958,0,1 @ F,0,0,1,0,0,0,1 @ F,0,0,1,0,0,0,1 @ F,0,0,1,0,0,0,1 @ F,0,0,1,0,0,0,1 @ F,0,0,1,0,0,0,1 @ F,0,0,1,0,0,0,1 @ F,0,0,1,0,0,0,1 @ F,0,0,1,0,0,0,1 @ F,0,0,1,0,0,0,1 @ F,0,0,1,0,0,0,1 @ F,0,0,1,0,0,0,1 @ F,0,0,1,0,0,0,1 @ F,0,0,1,0,0,0,1 @ F,0,0,1,0,0,0,1 | F,0,0,1,0,0,0,1 @ F,0,0,1,0,0,0,1 @ F,0,0,1,0,0,0,1 @ F,0,0,1,0,0,0,1 @ F,0,0,1,0,0,0,1 @ F,0,0,1,0,0,0,1 @ F,0,0,1,0,0,0,1 @ F,0,0,1,0,0,0,1 | F,0,0,1,0,0,0,1 @ F,0,0,1,0,0,0,1 @ F,0,0,1,0,0,0,1 @ F,0,0,1,0,0,0,1 @ F,0,0,1,0,0,0,1 @ F,0,0,1,0,0,0,1 @ F,0,0,1,0,0,0,1 @ F,0,0,1,0,0,0,1"
       radius="0"
       unit="px"
       method="auto"
       mode="F"
       chamfer_steps="1"
       flexible="false"
       use_knot_distance="true"
       apply_no_radius="true"
       apply_with_radius="true"
       only_selected="false"
       hide_knots="false" /></defs><g
     inkscape:label="Layer 1"
     inkscape:groupmode="layer"
     id="layer1"
     transform="translate(-3.4693154,-3.9255515)"><g
       id="g1"
       transform="matrix(1.1561443,0,0,1.1561443,130.51573,0.93322771)"
       inkscape:label="g1"
       inkscape:export-filename="g1.png"
       inkscape:export-xdpi="96"
       inkscape:export-ydpi="96"><path
         fill="#ffffff"
         d="m 21,10 v 9 a 2,2 0 0 1 -2,2 H 5 A 2,2 0 0 1 3,19 v -9 z"
         class="duoicon-secondary-layer"
         opacity="0.3"
         id="path1" /><path
         fill="#ffffff"
         d="m 20,3 a 2,2 0 0 1 2,2 V 8 H 2 V 5 A 2,2 0 0 1 4,3 Z m -6,10 h -4 a 1,1 0 1 0 0,2 h 4 a 1,1 0 1 0 0,-2"
         class="duoicon-primary-layer"
         id="path2" /></g><path
       style="-inkscape-font-specification:'INTER Ultra-Bold';fill:#ffffff;fill-opacity:0.544839;stroke-width:0.538478"
       d="m 115.05263,5.0264849 3.34288,5.7830121 h 0.16318 l 3.44482,-5.8962988 a 1.4167954,1.4167954 0 0 1 1.22332,-0.7020904 H 127.5 a 0.31816146,0.31816146 0 0 1 0.2724,0.4825577 l -6.0114,9.9606425 6.07661,9.753059 a 0.45142387,0.45142387 0 0 1 -0.38314,0.69014 h -4.41686 a 0.98294858,0.98294858 0 0 1 -0.84764,-0.485254 l -3.63128,-6.184524 h -0.16318 l -3.41183,5.810765 a 1.7400505,1.7400505 0 0 1 -1.50051,0.859013 h -3.83308 a 0.51352709,0.51352709 0 0 1 -0.43643,-0.784162 l 5.98974,-9.659037 -5.79462,-9.5859398 a 0.56498346,0.56498346 0 0 1 0.48351,-0.8572604 h 3.74721 a 1.6322408,1.6322408 0 0 1 1.41313,0.8153771 z"
       id="path393" /><path
       style="-inkscape-font-specification:'INTER Ultra-Bold';fill:#ffffff;fill-opacity:0.544839;stroke-width:0.538478"
       d="m 107.70755,14.654308 c 0,2.298047 -0.44193,4.245949 -1.3258,5.843704 -0.88387,1.597755 -2.08048,2.811369 -3.58985,3.640842 -1.50257,0.829473 -3.188712,1.24421 -5.058422,1.24421 -1.87651,0 -3.56606,-0.418136 -5.06863,-1.254408 -1.50257,-0.836272 -2.69578,-2.049886 -3.57965,-3.640842 -0.87707,-1.597755 -1.3156,-3.542257 -1.3156,-5.833506 0,-2.298048 0.43853,-4.24595 1.3156,-5.843705 0.88387,-1.5977552 2.07708,-2.8113692 3.57965,-3.6408421 1.50257,-0.8294729 3.19212,-1.2442094 5.06863,-1.2442094 1.86971,0 3.555852,0.4147365 5.058422,1.2442094 1.50937,0.8294729 2.70598,2.0430869 3.58985,3.6408421 0.88387,1.597755 1.3258,3.545657 1.3258,5.843705 z m -5.16041,0 c 0,-1.359792 -0.19377,-2.508816 -0.58131,-3.447072 -0.38075,-0.938257 -0.93146,-1.648748 -1.65215,-2.131474 -0.713892,-0.482726 -1.573962,-0.724089 -2.580202,-0.724089 -0.99945,0 -1.85952,0.241363 -2.58021,0.724089 -0.72069,0.482726 -1.2748,1.193217 -1.66234,2.131474 -0.38075,0.938256 -0.57112,2.08728 -0.57112,3.447072 0,1.359791 0.19037,2.508815 0.57112,3.447071 0.38754,0.938257 0.94165,1.648748 1.66234,2.131474 0.72069,0.482726 1.58076,0.724089 2.58021,0.724089 1.00624,0 1.86631,-0.241363 2.580202,-0.724089 0.72069,-0.482726 1.2714,-1.193217 1.65215,-2.131474 0.38754,-0.938256 0.58131,-2.08728 0.58131,-3.447071 z"
       id="path392" /><path
       style="-inkscape-font-specification:'INTER Ultra-Bold';fill:#ffffff;stroke-width:0.538478"
       d="M 96.836432,25.323971 V 7.6782786 a 1.4827958,1.4827958 135 0 1 1.482796,-1.4827958 h 7.226672 c 1.56376,0 2.87256,0.2209661 3.9264,0.6628984 1.06063,0.4419323 1.85611,1.0606375 2.38643,1.8561156 0.53712,0.7954781 0.80568,1.7167372 0.80568,2.7637762 0,0.795478 -0.16658,1.505969 -0.49973,2.131474 -0.33315,0.618705 -0.79208,1.132027 -1.37679,1.539964 -0.58471,0.407937 -1.2612,0.693494 -2.02948,0.856669 v 0.203968 c 0.84307,0.04079 1.62155,0.268559 2.33544,0.683296 0.72069,0.414736 1.2986,0.992647 1.73373,1.733734 0.43513,0.734287 0.6527,1.604554 0.6527,2.6108 0,1.121828 -0.28556,2.124674 -0.85667,3.008539 -0.57111,0.877065 -1.39719,1.570559 -2.47822,2.080481 -1.08103,0.503123 -2.39323,0.754684 -3.93659,0.754684 h -7.614457 a 1.7579108,1.7579108 45 0 1 -1.757911,-1.757911 z m 5.048228,-2.311265 h 3.12072 c 1.09463,0 1.90031,-0.207368 2.41703,-0.622105 0.52352,-0.414736 0.78528,-0.992647 0.78528,-1.733734 0,-0.537118 -0.12578,-0.999447 -0.37734,-1.386988 -0.25156,-0.394339 -0.60851,-0.696893 -1.07084,-0.90766 -0.46233,-0.217567 -1.01644,-0.32635 -1.66234,-0.32635 h -3.21251 z m 0,-8.230139 h 2.79437 c 0.55071,0 1.04024,-0.09179 1.46858,-0.275358 0.42833,-0.183572 0.76148,-0.448731 0.99944,-0.795478 0.24477,-0.346747 0.36715,-0.764883 0.36715,-1.254408 0,-0.700293 -0.24816,-1.251008 -0.74449,-1.652147 -0.49633,-0.401138 -1.16602,-0.601707 -2.00909,-0.601707 h -2.87596 z"
       id="path391"
       inkscape:path-effect="#path-effect393"
       inkscape:original-d="M 96.836432,27.081882 V 6.1954828 h 8.709468 c 1.56376,0 2.87256,0.2209661 3.9264,0.6628984 1.06063,0.4419323 1.85611,1.0606375 2.38643,1.8561156 0.53712,0.7954781 0.80568,1.7167372 0.80568,2.7637762 0,0.795478 -0.16658,1.505969 -0.49973,2.131474 -0.33315,0.618705 -0.79208,1.132027 -1.37679,1.539964 -0.58471,0.407937 -1.2612,0.693494 -2.02948,0.856669 v 0.203968 c 0.84307,0.04079 1.62155,0.268559 2.33544,0.683296 0.72069,0.414736 1.2986,0.992647 1.73373,1.733734 0.43513,0.734287 0.6527,1.604554 0.6527,2.6108 0,1.121828 -0.28556,2.124674 -0.85667,3.008539 -0.57111,0.877065 -1.39719,1.570559 -2.47822,2.080481 -1.08103,0.503123 -2.39323,0.754684 -3.93659,0.754684 z m 5.048228,-4.069176 h 3.12072 c 1.09463,0 1.90031,-0.207368 2.41703,-0.622105 0.52352,-0.414736 0.78528,-0.992647 0.78528,-1.733734 0,-0.537118 -0.12578,-0.999447 -0.37734,-1.386988 -0.25156,-0.394339 -0.60851,-0.696893 -1.07084,-0.90766 -0.46233,-0.217567 -1.01644,-0.32635 -1.66234,-0.32635 h -3.21251 z m 0,-8.230139 h 2.79437 c 0.55071,0 1.04024,-0.09179 1.46858,-0.275358 0.42833,-0.183572 0.76148,-0.448731 0.99944,-0.795478 0.24477,-0.346747 0.36715,-0.764883 0.36715,-1.254408 0,-0.700293 -0.24816,-1.251008 -0.74449,-1.652147 -0.49633,-0.401138 -1.16602,-0.601707 -2.00909,-0.601707 h -2.87596 z"
       transform="translate(-27.913542,-1.984375)" /><path
       style="-inkscape-font-specification:'INTER Ultra-Bold';fill:#ffffff;fill-opacity:0.544839;stroke-width:0.538478"
       d="m 66.046946,11.778348 h -4.612965 c -0.26855,0 -0.511435,-0.216892 -0.57152,-0.478527 -0.07739,-0.336993 -0.188348,-0.650012 -0.332869,-0.939056 C 60.318824,9.93923 60.040067,9.578885 59.69332,9.279731 59.346573,8.980577 58.935236,8.752812 58.459309,8.596436 57.990181,8.433261 57.470061,8.351673 56.898948,8.351673 c -1.013045,0 -1.886711,0.248162 -2.620998,0.744486 -0.727489,0.496324 -1.288403,1.213614 -1.682743,2.151871 -0.38754,0.938256 -0.58131,2.073682 -0.58131,3.406278 0,1.386987 0.19717,2.549609 0.591509,3.487865 0.401139,0.931457 0.962053,1.63515 1.682742,2.111077 0.727489,0.469128 1.587557,0.703692 2.580205,0.703692 0.557515,0 1.064037,-0.07139 1.519567,-0.214167 0.462329,-0.142778 0.866867,-0.350146 1.213614,-0.622105 0.353546,-0.278757 0.642502,-0.615306 0.866867,-1.009645 0.129488,-0.2247 0.236576,-0.4654 0.321264,-0.7221 0.113109,-0.342847 0.450974,-0.632534 0.812297,-0.630366 l 3.79075,0.02275 c 0.361323,0.0022 0.62926,0.296501 0.562464,0.651477 -0.132319,0.703183 -0.370288,1.398393 -0.713906,2.08563 -0.441933,0.897463 -1.05044,1.716737 -1.825521,2.457824 -0.775081,0.734287 -1.720136,1.318998 -2.835165,1.754131 -1.10823,0.435133 -2.379635,0.6527 -3.814216,0.6527 -1.89011,0 -3.58305,-0.414737 -5.078821,-1.24421 -1.488972,-0.836271 -2.665192,-2.053285 -3.52866,-3.65104 -0.863467,-1.597755 -1.295201,-3.542257 -1.295201,-5.833506 0,-2.298048 0.438533,-4.24595 1.315598,-5.843705 0.877066,-1.5977552 2.063484,-2.8113692 3.559255,-3.6408421 1.495771,-0.8294729 3.171714,-1.2442094 5.027829,-1.2442094 1.264607,0 2.434028,0.1767729 3.508263,0.5303188 1.074235,0.3467469 2.01929,0.8566687 2.835165,1.5297656 0.815875,0.6662979 1.478774,1.4855722 1.988696,2.4578231 0.509921,0.972251 0.948454,2.184903 0.948454,3.334889 z"
       id="path390" /><path
       style="-inkscape-font-specification:'INTER Ultra-Bold';fill:#ffffff;fill-opacity:0.544839;stroke-width:0.538478"
       d="m 44.150891,14.654308 c 0,2.298047 -0.441932,4.245949 -1.325797,5.843704 -0.883865,1.597755 -2.080481,2.811369 -3.58985,3.640842 -1.502569,0.829473 -3.188711,1.24421 -5.058425,1.24421 -1.876512,0 -3.566053,-0.418136 -5.068623,-1.254408 -1.50257,-0.836272 -2.695787,-2.049886 -3.579652,-3.640842 -0.877065,-1.597755 -1.315598,-3.542257 -1.315598,-5.833506 0,-2.298048 0.438533,-4.24595 1.315598,-5.843705 0.883865,-1.5977552 2.077082,-2.8113692 3.579652,-3.6408421 1.50257,-0.8294729 3.192111,-1.2442094 5.068623,-1.2442094 1.869714,0 3.555856,0.4147365 5.058425,1.2442094 1.509369,0.8294729 2.705985,2.0430869 3.58985,3.6408421 0.883865,1.597755 1.325797,3.545657 1.325797,5.843705 z m -5.160409,0 c 0,-1.359792 -0.19377,-2.508816 -0.581311,-3.447072 C 38.028429,10.268979 37.477713,9.558488 36.757024,9.075762 36.043133,8.593036 35.183065,8.351673 34.176819,8.351673 c -0.999447,0 -1.859515,0.241363 -2.580204,0.724089 -0.72069,0.482726 -1.274805,1.193217 -1.662346,2.131474 -0.380741,0.938256 -0.571112,2.08728 -0.571112,3.447072 0,1.359791 0.190371,2.508815 0.571112,3.447071 0.387541,0.938257 0.941656,1.648748 1.662346,2.131474 0.720689,0.482726 1.580757,0.724089 2.580204,0.724089 1.006246,0 1.866314,-0.241363 2.580205,-0.724089 0.720689,-0.482726 1.271405,-1.193217 1.652147,-2.131474 0.387541,-0.938256 0.581311,-2.08728 0.581311,-3.447071 z"
       id="path389" /><path
       style="-inkscape-font-specification:'INTER Ultra-Bold';fill:#ffffff;stroke-width:0.538478"
       d="M 11.189532,25.097507 H 5.6966314 c -1.230113,0 -2.227316,-0.997203 -2.227316,-2.227316 V 6.0644904 c 0,-1.0235951 0.829788,-1.8533828 1.853383,-1.8533826 H 10.30731 c 0.481606,0 1.262829,-0.00305 1.743592,0.024311 1.760937,0.1002124 3.302734,0.5102449 4.625389,1.2300973 1.543364,0.8294729 2.733182,2.0260897 3.569453,3.5898509 0.836272,1.55696 1.254408,3.419876 1.254408,5.588742 0,2.175667 -0.418136,4.04538 -1.254408,5.609141 -0.829473,1.56376 -2.015891,2.763776 -3.559254,3.600049 -1.543363,0.829472 -3.375683,1.244209 -5.496958,1.244208 z m -2.6719896,-4.30374 h 2.4782196 c 1.169421,0 2.158669,-0.19717 2.967745,-0.591509 0.815875,-0.401139 1.431181,-1.050439 1.845917,-1.947902 0.421535,-0.904261 0.632303,-2.107677 0.632303,-3.610247 0,-1.502569 -0.210768,-2.699186 -0.632303,-3.58985 C 15.387889,10.156797 14.765784,9.510896 13.94311,9.116556 13.127235,8.715417 12.12099,8.514848 10.924373,8.514848 H 8.5175424 Z"
       id="text1" /></g></svg>
